<svg width="253" height="93" viewBox="0 0 253 93" fill="none" xmlns="http://www.w3.org/2000/svg">
<path d="M17.5834 9.008C17.5194 9.952 17.4714 10.864 17.4394 11.744C17.4234 12.624 17.4154 13.296 17.4154 13.76C17.4154 14.096 17.4234 14.416 17.4394 14.72C17.4554 15.024 17.4714 15.28 17.4874 15.488H16.9354C16.5674 13.984 16.1194 12.8 15.5914 11.936C15.0794 11.072 14.5274 10.464 13.9354 10.112C13.3594 9.744 12.7834 9.56 12.2074 9.56H12.1834V23.288C12.1834 23.944 12.2474 24.432 12.3754 24.752C12.5194 25.072 12.7834 25.28 13.1674 25.376C13.5514 25.472 14.1114 25.52 14.8474 25.52V26C14.2874 25.984 13.5274 25.968 12.5674 25.952C11.6234 25.936 10.6314 25.928 9.59138 25.928C8.59938 25.928 7.66338 25.936 6.78338 25.952C5.90338 25.968 5.19138 25.984 4.64738 26V25.52C5.38338 25.52 5.94338 25.472 6.32738 25.376C6.71138 25.28 6.96738 25.072 7.09538 24.752C7.23938 24.432 7.31138 23.944 7.31138 23.288V9.56H7.28738C6.71138 9.56 6.12738 9.744 5.53538 10.112C4.95938 10.464 4.41538 11.072 3.90338 11.936C3.39138 12.784 2.94338 13.968 2.55938 15.488H2.00738C2.03938 15.28 2.05538 15.024 2.05538 14.72C2.07138 14.416 2.07938 14.096 2.07938 13.76C2.07938 13.296 2.06338 12.624 2.03138 11.744C2.01538 10.864 1.97538 9.952 1.91138 9.008C2.67938 9.024 3.52738 9.04 4.45538 9.056C5.38338 9.072 6.31138 9.08 7.23938 9.08C8.16738 9.08 9.00738 9.08 9.75938 9.08C10.5114 9.08 11.3514 9.08 12.2794 9.08C13.2074 9.08 14.1354 9.072 15.0634 9.056C15.9914 9.04 16.8314 9.024 17.5834 9.008ZM24.096 7.232V15.008C24.48 14.368 24.992 13.912 25.632 13.64C26.288 13.352 27.048 13.208 27.912 13.208C28.648 13.208 29.224 13.304 29.64 13.496C30.072 13.672 30.4 13.896 30.624 14.168C30.864 14.456 31.04 14.84 31.152 15.32C31.264 15.8 31.32 16.448 31.32 17.264V23.768C31.32 24.44 31.416 24.896 31.608 25.136C31.816 25.376 32.168 25.496 32.664 25.496V26C32.344 25.984 31.856 25.968 31.2 25.952C30.56 25.92 29.928 25.904 29.304 25.904C28.632 25.904 27.976 25.92 27.336 25.952C26.696 25.968 26.216 25.984 25.896 26V25.496C26.312 25.496 26.6 25.376 26.76 25.136C26.92 24.896 27 24.44 27 23.768V15.968C27 15.632 26.96 15.352 26.88 15.128C26.8 14.904 26.672 14.736 26.496 14.624C26.336 14.512 26.112 14.456 25.824 14.456C25.376 14.456 24.976 14.616 24.624 14.936C24.272 15.256 24.096 15.672 24.096 16.184V23.768C24.096 24.44 24.176 24.896 24.336 25.136C24.512 25.376 24.8 25.496 25.2 25.496V26C24.896 25.984 24.448 25.968 23.856 25.952C23.264 25.92 22.656 25.904 22.032 25.904C21.36 25.904 20.68 25.92 19.992 25.952C19.304 25.968 18.784 25.984 18.432 26V25.496C18.928 25.496 19.272 25.376 19.464 25.136C19.672 24.896 19.776 24.44 19.776 23.768V10.112C19.776 9.392 19.68 8.864 19.488 8.528C19.296 8.176 18.944 8 18.432 8V7.496C18.944 7.544 19.44 7.568 19.92 7.568C20.72 7.568 21.464 7.544 22.152 7.496C22.856 7.432 23.504 7.344 24.096 7.232ZM39.8417 13.208C41.2497 13.208 42.3537 13.624 43.1537 14.456C43.9697 15.272 44.3777 16.648 44.3777 18.584H36.8657L36.8177 18.128H40.8737C40.8897 17.344 40.8577 16.624 40.7777 15.968C40.6977 15.296 40.5697 14.76 40.3937 14.36C40.2177 13.96 39.9777 13.76 39.6737 13.76C39.2417 13.76 38.8897 14.104 38.6177 14.792C38.3457 15.464 38.1697 16.624 38.0897 18.272L38.1857 18.464C38.1697 18.624 38.1617 18.784 38.1617 18.944C38.1617 19.104 38.1617 19.272 38.1617 19.448C38.1617 20.568 38.2977 21.44 38.5697 22.064C38.8577 22.688 39.2097 23.12 39.6257 23.36C40.0577 23.6 40.4897 23.72 40.9217 23.72C41.2417 23.72 41.6737 23.64 42.2177 23.48C42.7617 23.304 43.2977 22.848 43.8257 22.112L44.2337 22.256C44.0417 22.896 43.7297 23.536 43.2977 24.176C42.8817 24.8 42.3377 25.32 41.6657 25.736C40.9937 26.136 40.1777 26.336 39.2177 26.336C38.1937 26.336 37.2577 26.128 36.4097 25.712C35.5777 25.296 34.9137 24.608 34.4177 23.648C33.9217 22.688 33.6737 21.4 33.6737 19.784C33.6737 18.248 33.9457 17 34.4897 16.04C35.0337 15.064 35.7697 14.352 36.6977 13.904C37.6417 13.44 38.6897 13.208 39.8417 13.208Z" fill="black"/>
<path d="M2.57044 70.008C3.03444 70.024 3.64244 70.04 4.39444 70.056C5.16244 70.072 5.93044 70.08 6.69844 70.08C7.49844 70.08 8.26644 70.072 9.00244 70.056C9.73844 70.04 10.2584 70.032 10.5624 70.032C12.9944 70.032 14.8024 70.472 15.9864 71.352C17.1864 72.232 17.7864 73.368 17.7864 74.76C17.7864 75.336 17.6664 75.944 17.4264 76.584C17.1864 77.208 16.7784 77.792 16.2024 78.336C15.6264 78.864 14.8344 79.296 13.8264 79.632C12.8344 79.968 11.5704 80.136 10.0344 80.136H7.49044V79.656H9.79444C10.6104 79.656 11.2264 79.44 11.6424 79.008C12.0744 78.576 12.3624 78.008 12.5064 77.304C12.6664 76.6 12.7464 75.84 12.7464 75.024C12.7464 73.504 12.5704 72.368 12.2184 71.616C11.8824 70.864 11.2904 70.488 10.4424 70.488C9.89844 70.488 9.54644 70.624 9.38644 70.896C9.22644 71.168 9.14644 71.72 9.14644 72.552V84.216C9.14644 84.872 9.21044 85.36 9.33844 85.68C9.48244 86 9.74644 86.208 10.1304 86.304C10.5144 86.4 11.0744 86.448 11.8104 86.448V87C11.2664 86.984 10.5544 86.968 9.67444 86.952C8.79444 86.936 7.85844 86.928 6.86644 86.928C6.13044 86.928 5.39444 86.936 4.65844 86.952C3.92244 86.968 3.22644 86.984 2.57044 87V86.52C3.06644 86.488 3.43444 86.424 3.67444 86.328C3.91444 86.232 4.07444 86.04 4.15444 85.752C4.23444 85.464 4.27444 85.032 4.27444 84.456V72.552C4.27444 71.96 4.23444 71.528 4.15444 71.256C4.07444 70.968 3.90644 70.776 3.65044 70.68C3.41044 70.568 3.05044 70.504 2.57044 70.488V70.008ZM27.4281 74.208C28.0041 74.208 28.4521 74.336 28.7721 74.592C29.0921 74.832 29.3161 75.144 29.4441 75.528C29.5721 75.896 29.6361 76.264 29.6361 76.632C29.6361 77.352 29.4281 77.928 29.0121 78.36C28.6121 78.776 28.0841 78.984 27.4281 78.984C26.7241 78.984 26.1881 78.824 25.8201 78.504C25.4681 78.184 25.2921 77.768 25.2921 77.256C25.2921 76.712 25.4041 76.264 25.6281 75.912C25.8681 75.56 26.1641 75.264 26.5161 75.024C26.2281 75.024 25.9721 75.08 25.7481 75.192C25.4921 75.304 25.2521 75.472 25.0281 75.696C24.8201 75.904 24.6521 76.152 24.5241 76.44C24.3961 76.712 24.3321 77.008 24.3321 77.328V84.528C24.3321 85.296 24.4921 85.816 24.8121 86.088C25.1321 86.36 25.6601 86.496 26.3961 86.496V87C26.0281 86.984 25.4761 86.968 24.7401 86.952C24.0201 86.92 23.2761 86.904 22.5081 86.904C21.7881 86.904 21.0601 86.92 20.3241 86.952C19.5881 86.968 19.0361 86.984 18.6681 87V86.496C19.1641 86.496 19.5081 86.376 19.7001 86.136C19.9081 85.896 20.0121 85.44 20.0121 84.768V77.16C20.0121 76.44 19.9161 75.912 19.7241 75.576C19.5321 75.224 19.1801 75.048 18.6681 75.048V74.544C19.1801 74.592 19.6761 74.616 20.1561 74.616C20.9561 74.616 21.7001 74.592 22.3881 74.544C23.0921 74.48 23.7401 74.392 24.3321 74.28V76.008C24.5401 75.592 24.7961 75.256 25.1001 75C25.4041 74.728 25.7481 74.528 26.1321 74.4C26.5321 74.272 26.9641 74.208 27.4281 74.208ZM36.162 74.208C37.41 74.208 38.49 74.424 39.402 74.856C40.33 75.272 41.05 75.96 41.562 76.92C42.074 77.88 42.33 79.168 42.33 80.784C42.33 82.4 42.074 83.688 41.562 84.648C41.05 85.608 40.33 86.296 39.402 86.712C38.49 87.128 37.41 87.336 36.162 87.336C34.93 87.336 33.85 87.128 32.922 86.712C31.994 86.296 31.274 85.608 30.762 84.648C30.25 83.688 29.994 82.4 29.994 80.784C29.994 79.168 30.25 77.88 30.762 76.92C31.274 75.96 31.994 75.272 32.922 74.856C33.85 74.424 34.93 74.208 36.162 74.208ZM36.162 74.688C35.682 74.688 35.282 75.168 34.962 76.128C34.642 77.088 34.482 78.64 34.482 80.784C34.482 82.928 34.642 84.48 34.962 85.44C35.282 86.384 35.682 86.856 36.162 86.856C36.642 86.856 37.042 86.384 37.362 85.44C37.682 84.48 37.842 82.928 37.842 80.784C37.842 78.64 37.682 77.088 37.362 76.128C37.042 75.168 36.642 74.688 36.162 74.688ZM42.5741 91.512V91.032C43.2141 91.032 43.7501 90.8 44.1821 90.336C44.6301 89.888 44.8541 89.112 44.8541 88.008V77.16C44.8541 76.44 44.7581 75.912 44.5661 75.576C44.3741 75.224 44.0221 75.048 43.5101 75.048V74.544C44.0221 74.592 44.5181 74.616 44.9981 74.616C45.7981 74.616 46.5421 74.592 47.2301 74.544C47.9341 74.48 48.5821 74.392 49.1741 74.28V85.08C49.1741 86.488 49.0461 87.576 48.7901 88.344C48.5341 89.112 48.0941 89.768 47.4701 90.312C47.0701 90.664 46.4861 90.952 45.7181 91.176C44.9501 91.4 43.9021 91.512 42.5741 91.512ZM46.7501 68.232C47.5821 68.232 48.2221 68.408 48.6701 68.76C49.1341 69.096 49.3661 69.608 49.3661 70.296C49.3661 70.984 49.1341 71.504 48.6701 71.856C48.2221 72.192 47.5821 72.36 46.7501 72.36C45.9181 72.36 45.2701 72.192 44.8061 71.856C44.3581 71.504 44.1341 70.984 44.1341 70.296C44.1341 69.608 44.3581 69.096 44.8061 68.76C45.2701 68.408 45.9181 68.232 46.7501 68.232ZM57.6073 74.208C59.0153 74.208 60.1193 74.624 60.9193 75.456C61.7353 76.272 62.1433 77.648 62.1433 79.584H54.6313L54.5833 79.128H58.6393C58.6553 78.344 58.6233 77.624 58.5433 76.968C58.4633 76.296 58.3353 75.76 58.1593 75.36C57.9833 74.96 57.7433 74.76 57.4393 74.76C57.0073 74.76 56.6553 75.104 56.3833 75.792C56.1113 76.464 55.9353 77.624 55.8553 79.272L55.9513 79.464C55.9353 79.624 55.9273 79.784 55.9273 79.944C55.9273 80.104 55.9273 80.272 55.9273 80.448C55.9273 81.568 56.0633 82.44 56.3353 83.064C56.6233 83.688 56.9753 84.12 57.3913 84.36C57.8233 84.6 58.2553 84.72 58.6873 84.72C59.0073 84.72 59.4393 84.64 59.9833 84.48C60.5273 84.304 61.0633 83.848 61.5913 83.112L61.9993 83.256C61.8073 83.896 61.4953 84.536 61.0633 85.176C60.6473 85.8 60.1033 86.32 59.4313 86.736C58.7593 87.136 57.9433 87.336 56.9833 87.336C55.9593 87.336 55.0233 87.128 54.1753 86.712C53.3433 86.296 52.6793 85.608 52.1833 84.648C51.6873 83.688 51.4393 82.4 51.4393 80.784C51.4393 79.248 51.7113 78 52.2553 77.04C52.7993 76.064 53.5353 75.352 54.4633 74.904C55.4073 74.44 56.4553 74.208 57.6073 74.208ZM69.6536 74.208C70.3576 74.208 70.9816 74.28 71.5256 74.424C72.0696 74.568 72.5016 74.736 72.8216 74.928C73.2536 75.184 73.5976 75.528 73.8536 75.96C74.1256 76.376 74.2616 76.864 74.2616 77.424C74.2616 78.08 74.0456 78.632 73.6136 79.08C73.1816 79.528 72.6296 79.752 71.9576 79.752C71.2536 79.752 70.7096 79.552 70.3256 79.152C69.9416 78.752 69.7496 78.232 69.7496 77.592C69.7496 76.984 69.9416 76.472 70.3256 76.056C70.7256 75.624 71.1896 75.336 71.7176 75.192C71.6056 75.112 71.4696 75.048 71.3096 75C71.1656 74.936 70.9816 74.904 70.7576 74.904C70.1816 74.904 69.7096 75.08 69.3416 75.432C68.9896 75.768 68.7096 76.216 68.5016 76.776C68.3096 77.336 68.1736 77.936 68.0936 78.576C68.0136 79.216 67.9736 79.84 67.9736 80.448C67.9736 81.568 68.1256 82.44 68.4296 83.064C68.7336 83.688 69.1176 84.12 69.5816 84.36C70.0456 84.6 70.5096 84.72 70.9736 84.72C71.2936 84.72 71.7256 84.64 72.2696 84.48C72.8136 84.304 73.3496 83.848 73.8776 83.112L74.2856 83.256C74.0936 83.896 73.7816 84.536 73.3496 85.176C72.9336 85.8 72.3896 86.32 71.7176 86.736C71.0456 87.136 70.2296 87.336 69.2696 87.336C68.1976 87.336 67.2216 87.128 66.3416 86.712C65.4776 86.296 64.7816 85.608 64.2536 84.648C63.7416 83.688 63.4856 82.4 63.4856 80.784C63.4856 79.248 63.7576 78 64.3016 77.04C64.8456 76.064 65.5816 75.352 66.5096 74.904C67.4536 74.44 68.5016 74.208 69.6536 74.208ZM80.8839 70.656V74.544H83.2359V75.024H80.8839V84.984C80.8839 85.288 80.9399 85.512 81.0519 85.656C81.1639 85.784 81.3479 85.848 81.6039 85.848C81.7799 85.848 81.9879 85.8 82.2279 85.704C82.4679 85.592 82.6919 85.408 82.8999 85.152L83.2599 85.44C82.9239 86.016 82.4759 86.48 81.9159 86.832C81.3719 87.168 80.6839 87.336 79.8519 87.336C79.3239 87.336 78.8439 87.264 78.4119 87.12C77.9959 86.992 77.6519 86.792 77.3799 86.52C77.0279 86.168 76.8039 85.736 76.7079 85.224C76.6119 84.696 76.5639 84.016 76.5639 83.184V75.024H74.7399V74.544H76.5639V71.712C77.4119 71.712 78.1799 71.632 78.8679 71.472C79.5719 71.296 80.2439 71.024 80.8839 70.656ZM86.6106 83.208C87.3626 83.208 87.9466 83.384 88.3626 83.736C88.7786 84.072 88.9866 84.584 88.9866 85.272C88.9866 85.96 88.7786 86.48 88.3626 86.832C87.9466 87.168 87.3626 87.336 86.6106 87.336C85.8426 87.336 85.2506 87.168 84.8346 86.832C84.4346 86.48 84.2346 85.96 84.2346 85.272C84.2346 84.584 84.4346 84.072 84.8346 83.736C85.2506 83.384 85.8426 83.208 86.6106 83.208Z" fill="black"/>
<path d="M33.6411 31.016V31.976C32.6811 32.168 31.9451 32.504 31.4331 32.984C30.9531 33.464 30.6331 34.216 30.4731 35.24C30.3131 36.232 30.2331 37.64 30.2331 39.464V51.032C30.2331 53.016 30.0891 54.888 29.8011 56.648C29.5451 58.408 29.0331 59.928 28.2651 61.208C27.4331 62.584 26.1851 63.672 24.5211 64.472C22.8891 65.272 20.6971 65.672 17.9451 65.672C16.4731 65.672 14.9211 65.512 13.2891 65.192C11.6571 64.872 10.2011 64.264 8.92113 63.368C7.83313 62.568 7.00113 61.592 6.42513 60.44C5.84913 59.288 5.46513 57.944 5.27313 56.408C5.08113 54.872 4.98513 53.128 4.98513 51.176V36.104C4.98513 34.92 4.90513 34.056 4.74513 33.512C4.58513 32.936 4.26513 32.552 3.78513 32.36C3.30513 32.136 2.56913 32.008 1.57713 31.976V31.016C2.50513 31.048 3.72113 31.08 5.22513 31.112C6.76113 31.144 8.36113 31.16 10.0251 31.16C11.6891 31.16 13.2891 31.144 14.8251 31.112C16.3611 31.08 17.6251 31.048 18.6171 31.016V31.976C17.5291 32.008 16.6971 32.136 16.1211 32.36C15.5771 32.552 15.2091 32.936 15.0171 33.512C14.8251 34.056 14.7291 34.92 14.7291 36.104V55.688C14.7291 57.8 14.9531 59.464 15.4011 60.68C15.8491 61.864 16.5211 62.712 17.4171 63.224C18.3131 63.736 19.4171 63.992 20.7291 63.992C22.8731 63.992 24.5531 63.48 25.7691 62.456C26.9851 61.4 27.8491 59.944 28.3611 58.088C28.8731 56.2 29.1291 54.024 29.1291 51.56V40.424C29.1291 38.28 29.0331 36.648 28.8411 35.528C28.6811 34.376 28.2651 33.544 27.5931 33.032C26.9211 32.52 25.8171 32.168 24.2811 31.976V31.016C24.9211 31.048 25.7531 31.08 26.7771 31.112C27.8011 31.144 28.7611 31.16 29.6571 31.16C30.3931 31.16 31.1131 31.144 31.8171 31.112C32.5531 31.08 33.1611 31.048 33.6411 31.016ZM68.2184 31.016V31.976C67.2584 32.168 66.5224 32.504 66.0104 32.984C65.5304 33.464 65.2104 34.216 65.0504 35.24C64.8904 36.232 64.8104 37.64 64.8104 39.464V65C64.3304 64.936 63.8024 64.904 63.2264 64.904C62.6824 64.904 62.0904 64.936 61.4504 65L40.1864 41.768V55.592C40.1864 57.736 40.2664 59.384 40.4264 60.536C40.6184 61.656 41.0504 62.472 41.7224 62.984C42.4264 63.464 43.5304 63.816 45.0344 64.04V65C44.3944 64.936 43.5624 64.904 42.5384 64.904C41.5144 64.872 40.5544 64.856 39.6584 64.856C38.9544 64.856 38.2344 64.872 37.4984 64.904C36.7624 64.904 36.1544 64.936 35.6744 65V64.04C36.6664 63.816 37.4024 63.48 37.8824 63.032C38.3624 62.552 38.6824 61.8 38.8424 60.776C39.0024 59.752 39.0824 58.344 39.0824 56.552V36.104C39.0824 34.92 39.0024 34.056 38.8424 33.512C38.6824 32.936 38.3464 32.552 37.8344 32.36C37.3544 32.136 36.6344 32.008 35.6744 31.976V31.016C36.1544 31.048 36.7624 31.08 37.4984 31.112C38.2344 31.144 38.9544 31.16 39.6584 31.16C40.4584 31.16 41.2424 31.144 42.0104 31.112C42.7784 31.08 43.4664 31.048 44.0744 31.016L63.7064 51.752V40.424C63.7064 38.28 63.6104 36.648 63.4184 35.528C63.2584 34.376 62.8424 33.544 62.1704 33.032C61.4984 32.52 60.3944 32.168 58.8584 31.976V31.016C59.4984 31.048 60.3304 31.08 61.3544 31.112C62.3784 31.144 63.3384 31.16 64.2344 31.16C64.9704 31.16 65.6904 31.144 66.3944 31.112C67.1304 31.08 67.7384 31.048 68.2184 31.016ZM103.375 31.016V31.976C102.415 32.168 101.679 32.504 101.167 32.984C100.687 33.464 100.367 34.216 100.207 35.24C100.047 36.232 99.9666 37.64 99.9666 39.464V65C99.4866 64.936 98.9586 64.904 98.3826 64.904C97.8386 64.904 97.2466 64.936 96.6066 65L75.3426 41.768V55.592C75.3426 57.736 75.4226 59.384 75.5826 60.536C75.7746 61.656 76.2066 62.472 76.8786 62.984C77.5826 63.464 78.6866 63.816 80.1906 64.04V65C79.5506 64.936 78.7186 64.904 77.6946 64.904C76.6706 64.872 75.7106 64.856 74.8146 64.856C74.1106 64.856 73.3906 64.872 72.6546 64.904C71.9186 64.904 71.3106 64.936 70.8306 65V64.04C71.8226 63.816 72.5586 63.48 73.0386 63.032C73.5186 62.552 73.8386 61.8 73.9986 60.776C74.1586 59.752 74.2386 58.344 74.2386 56.552V36.104C74.2386 34.92 74.1586 34.056 73.9986 33.512C73.8386 32.936 73.5026 32.552 72.9906 32.36C72.5106 32.136 71.7906 32.008 70.8306 31.976V31.016C71.3106 31.048 71.9186 31.08 72.6546 31.112C73.3906 31.144 74.1106 31.16 74.8146 31.16C75.6146 31.16 76.3986 31.144 77.1666 31.112C77.9346 31.08 78.6226 31.048 79.2306 31.016L98.8626 51.752V40.424C98.8626 38.28 98.7666 36.648 98.5746 35.528C98.4146 34.376 97.9986 33.544 97.3266 33.032C96.6546 32.52 95.5506 32.168 94.0146 31.976V31.016C94.6546 31.048 95.4866 31.08 96.5106 31.112C97.5346 31.144 98.4946 31.16 99.3906 31.16C100.127 31.16 100.847 31.144 101.551 31.112C102.287 31.08 102.895 31.048 103.375 31.016ZM123.37 31.016L134.986 60.968C135.434 62.056 135.914 62.84 136.426 63.32C136.938 63.768 137.402 64.008 137.818 64.04V65C136.666 64.936 135.322 64.904 133.786 64.904C132.25 64.872 130.682 64.856 129.082 64.856C127.45 64.856 125.914 64.872 124.474 64.904C123.034 64.904 121.882 64.936 121.018 65V64.04C122.65 63.976 123.674 63.704 124.09 63.224C124.538 62.712 124.442 61.64 123.802 60.008L116.122 38.744L117.082 37.064L110.458 54.296C109.402 57.048 108.874 59.112 108.874 60.488C108.906 61.864 109.322 62.792 110.122 63.272C110.922 63.72 111.962 63.976 113.242 64.04V65C112.058 64.936 110.986 64.904 110.026 64.904C109.098 64.872 108.074 64.856 106.954 64.856C106.346 64.856 105.69 64.872 104.986 64.904C104.314 64.904 103.738 64.936 103.258 65V64.04C103.994 63.912 104.714 63.448 105.418 62.648C106.154 61.816 106.906 60.408 107.674 58.424L118.33 31.016C119.098 31.08 119.93 31.112 120.826 31.112C121.754 31.112 122.602 31.08 123.37 31.016ZM125.05 51.176V52.136H110.746L111.226 51.176H125.05ZM181.539 31.016V31.976C180.579 32.008 179.843 32.136 179.331 32.36C178.851 32.552 178.531 32.936 178.371 33.512C178.211 34.056 178.131 34.92 178.131 36.104V59.912C178.131 61.064 178.211 61.928 178.371 62.504C178.563 63.08 178.899 63.464 179.379 63.656C179.859 63.848 180.579 63.976 181.539 64.04V65C180.547 64.936 179.283 64.904 177.747 64.904C176.211 64.872 174.643 64.856 173.043 64.856C171.315 64.856 169.683 64.872 168.147 64.904C166.643 64.904 165.427 64.936 164.499 65V64.04C165.587 63.976 166.403 63.848 166.947 63.656C167.523 63.464 167.907 63.08 168.099 62.504C168.291 61.928 168.387 61.064 168.387 59.912V34.232L168.867 34.136L156.819 64.952H156.051L142.515 34.136V55.592C142.515 57.736 142.595 59.384 142.755 60.536C142.947 61.656 143.379 62.472 144.051 62.984C144.755 63.464 145.859 63.816 147.363 64.04V65C146.723 64.936 145.891 64.904 144.867 64.904C143.843 64.872 142.883 64.856 141.987 64.856C141.283 64.856 140.563 64.872 139.827 64.904C139.091 64.904 138.483 64.936 138.003 65V64.04C138.995 63.816 139.731 63.48 140.211 63.032C140.691 62.552 141.011 61.8 141.171 60.776C141.331 59.752 141.411 58.344 141.411 56.552V36.104C141.411 34.92 141.331 34.056 141.171 33.512C141.011 32.936 140.675 32.552 140.163 32.36C139.683 32.136 138.963 32.008 138.003 31.976V31.016C138.483 31.048 139.091 31.08 139.827 31.112C140.563 31.144 141.283 31.16 141.987 31.16C143.843 31.16 145.619 31.144 147.315 31.112C149.011 31.08 150.547 31.048 151.923 31.016L161.427 52.424L159.987 54.008L168.867 31.16C169.507 31.16 170.195 31.16 170.931 31.16C171.667 31.16 172.371 31.16 173.043 31.16C174.643 31.16 176.211 31.144 177.747 31.112C179.283 31.08 180.547 31.048 181.539 31.016ZM211.051 31.016C210.923 32.616 210.827 34.168 210.763 35.672C210.731 37.144 210.715 38.28 210.715 39.08C210.715 39.752 210.731 40.392 210.763 41C210.795 41.608 210.827 42.12 210.859 42.536H209.755C209.371 39.88 208.731 37.8 207.835 36.296C206.939 34.76 205.883 33.688 204.667 33.08C203.483 32.44 202.235 32.12 200.923 32.12H200.299C199.467 32.12 198.843 32.2 198.427 32.36C198.011 32.488 197.723 32.76 197.563 33.176C197.435 33.592 197.371 34.248 197.371 35.144V60.872C197.371 61.736 197.435 62.392 197.563 62.84C197.723 63.256 198.011 63.544 198.427 63.704C198.843 63.832 199.467 63.896 200.299 63.896H201.883C202.939 63.896 204.043 63.56 205.195 62.888C206.379 62.184 207.467 61 208.459 59.336C209.451 57.672 210.203 55.4 210.715 52.52H211.819C211.723 53.672 211.675 55.144 211.675 56.936C211.675 57.736 211.691 58.888 211.723 60.392C211.755 61.864 211.851 63.4 212.011 65C210.379 64.936 208.539 64.904 206.491 64.904C204.443 64.872 202.619 64.856 201.019 64.856C199.867 64.856 198.315 64.856 196.363 64.856C194.443 64.856 192.395 64.872 190.219 64.904C188.075 64.904 186.075 64.936 184.219 65V64.04C185.211 63.976 185.947 63.848 186.427 63.656C186.907 63.464 187.227 63.08 187.387 62.504C187.547 61.928 187.627 61.064 187.627 59.912V36.104C187.627 34.92 187.547 34.056 187.387 33.512C187.227 32.936 186.891 32.552 186.379 32.36C185.899 32.136 185.179 32.008 184.219 31.976V31.016C186.075 31.048 188.075 31.08 190.219 31.112C192.395 31.144 194.443 31.16 196.363 31.16C198.315 31.16 199.867 31.16 201.019 31.16C202.491 31.16 204.155 31.16 206.011 31.16C207.899 31.128 209.579 31.08 211.051 31.016ZM204.091 47.432C204.091 47.432 204.091 47.592 204.091 47.912C204.091 48.232 204.091 48.392 204.091 48.392H195.931C195.931 48.392 195.931 48.232 195.931 47.912C195.931 47.592 195.931 47.432 195.931 47.432H204.091ZM205.483 41.096C205.355 42.92 205.291 44.312 205.291 45.272C205.323 46.232 205.339 47.112 205.339 47.912C205.339 48.712 205.355 49.592 205.387 50.552C205.419 51.512 205.499 52.904 205.627 54.728H204.523C204.331 53.544 203.931 52.472 203.323 51.512C202.747 50.552 201.995 49.8 201.067 49.256C200.139 48.68 199.067 48.392 197.851 48.392V47.432C199.067 47.432 200.123 47.096 201.019 46.424C201.915 45.752 202.651 44.936 203.227 43.976C203.803 42.984 204.187 42.024 204.379 41.096H205.483ZM231.422 31.016C238.142 31.016 243.118 32.456 246.35 35.336C249.614 38.184 251.246 42.28 251.246 47.624C251.246 51.112 250.446 54.168 248.846 56.792C247.246 59.384 244.926 61.4 241.886 62.84C238.878 64.28 235.246 65 230.99 65C230.222 65 229.102 64.984 227.63 64.952C226.19 64.888 224.91 64.856 223.79 64.856C222.19 64.856 220.622 64.872 219.086 64.904C217.582 64.904 216.366 64.936 215.438 65V64.04C216.43 63.976 217.166 63.848 217.646 63.656C218.126 63.464 218.446 63.08 218.606 62.504C218.766 61.928 218.846 61.064 218.846 59.912V36.104C218.846 34.92 218.766 34.056 218.606 33.512C218.446 32.936 218.11 32.552 217.598 32.36C217.118 32.136 216.398 32.008 215.438 31.976V31.016C216.366 31.048 217.582 31.096 219.086 31.16C220.622 31.192 222.158 31.192 223.694 31.16C224.878 31.128 226.206 31.096 227.678 31.064C229.182 31.032 230.43 31.016 231.422 31.016ZM232.142 31.88C230.67 31.88 229.71 32.152 229.262 32.696C228.814 33.24 228.59 34.344 228.59 36.008V60.008C228.59 61.672 228.814 62.776 229.262 63.32C229.742 63.864 230.718 64.136 232.19 64.136C234.366 64.136 236.11 63.512 237.422 62.264C238.734 60.984 239.678 59.128 240.254 56.696C240.862 54.264 241.166 51.304 241.166 47.816C241.166 42.44 240.446 38.44 239.006 35.816C237.566 33.192 235.278 31.88 232.142 31.88Z" fill="black"/>
</svg>
